G04*
G04 #@! TF.GenerationSoftware,Altium Limited,Altium Designer,25.1.2 (22)*
G04*
G04 Layer_Color=2752767*
%FSLAX25Y25*%
%MOIN*%
G70*
G04*
G04 #@! TF.SameCoordinates,A6D80DD8-A6EF-48C5-BEAB-CD18D09DD35D*
G04*
G04*
G04 #@! TF.FilePolarity,Positive*
G04*
G01*
G75*
%ADD50C,0.00500*%
%ADD54C,0.00667*%
D50*
X308000Y430500D02*
X309000Y432500D01*
X308000Y434500D01*
X310000Y433500D01*
X312000Y434500D01*
X311000Y432500D01*
X312000Y430500D01*
X310000Y431500D01*
X308000Y430500D01*
X318000D02*
X319000Y432500D01*
X318000Y434500D01*
X320000Y433500D01*
X322000Y434500D01*
X321000Y432500D01*
X322000Y430500D01*
X320000Y431500D01*
X318000Y430500D01*
X298000D02*
X299000Y432500D01*
X298000Y434500D01*
X300000Y433500D01*
X302000Y434500D01*
X301000Y432500D01*
X302000Y430500D01*
X300000Y431500D01*
X298000Y430500D01*
X299000Y394138D02*
Y393138D01*
X301000D01*
Y394138D01*
X302000D01*
Y396138D01*
X301000D01*
Y397138D01*
X299000D01*
Y396138D01*
X298000D01*
Y394138D01*
X299000D01*
X309000Y404138D02*
Y403138D01*
X311000D01*
Y404138D01*
X312000D01*
Y406138D01*
X311000D01*
Y407138D01*
X309000D01*
Y406138D01*
X308000D01*
Y404138D01*
X309000D01*
X319000Y394138D02*
Y393138D01*
X321000D01*
Y394138D01*
X322000D01*
Y396138D01*
X321000D01*
Y397138D01*
X319000D01*
Y396138D01*
X318000D01*
Y394138D01*
X319000D01*
X392000Y364000D02*
Y368000D01*
X396000D01*
Y364000D01*
X392000D01*
X224000Y473000D02*
Y477000D01*
X228000D01*
Y473000D01*
X224000D01*
Y364000D02*
Y368000D01*
X228000D01*
Y364000D01*
X224000D01*
X392000Y473000D02*
Y477000D01*
X396000D01*
Y473000D01*
X392000D01*
X227000Y425000D02*
X225000Y429000D01*
X229000D01*
X227000Y425000D01*
X258032Y397520D02*
X256031Y401520D01*
X260032D01*
X258032Y397520D01*
D54*
X234500Y385000D02*
G03*
X234500Y385000I-2000J0D01*
G01*
Y405000D02*
G03*
X234500Y405000I-2000J0D01*
G01*
X390000Y385000D02*
G03*
X390000Y385000I-2000J0D01*
G01*
Y405000D02*
G03*
X390000Y405000I-2000J0D01*
G01*
M02*
