G04*
G04 #@! TF.GenerationSoftware,Altium Limited,Altium Designer,25.1.2 (22)*
G04*
G04 Layer_Color=32768*
%FSLAX25Y25*%
%MOIN*%
G70*
G04*
G04 #@! TF.SameCoordinates,A6D80DD8-A6EF-48C5-BEAB-CD18D09DD35D*
G04*
G04*
G04 #@! TF.FilePolarity,Positive*
G04*
G01*
G75*
%ADD11C,0.00787*%
%ADD52C,0.00394*%
%ADD53C,0.00197*%
D11*
X296122Y409646D02*
X323878D01*
Y380354D02*
Y409646D01*
X296122Y380354D02*
X323878D01*
X296122D02*
Y409646D01*
D52*
X232500Y393032D02*
Y396969D01*
X230532Y395000D02*
X234469D01*
X388000Y393032D02*
Y396969D01*
X386032Y395000D02*
X389968D01*
D53*
X216161Y374607D02*
X248838D01*
X248838D02*
Y417637D01*
X216161Y374607D02*
Y417637D01*
X248838D01*
X221748Y466874D02*
X250252D01*
X221748Y421126D02*
Y466874D01*
Y421126D02*
X250252D01*
Y466874D01*
X310000Y430532D02*
Y434469D01*
X308032Y432500D02*
X311968D01*
X330472Y426791D02*
Y438209D01*
X289528D02*
X330472D01*
X289528Y426791D02*
Y438209D01*
Y426791D02*
X330472D01*
X371661Y415393D02*
X404339D01*
X371662Y372363D02*
Y415393D01*
X404339Y372363D02*
Y415393D01*
X371662Y372363D02*
X404339D01*
M02*
