G04*
G04 #@! TF.GenerationSoftware,Altium Limited,Altium Designer,25.1.2 (22)*
G04*
G04 Layer_Color=16711935*
%FSLAX25Y25*%
%MOIN*%
G70*
G04*
G04 #@! TF.SameCoordinates,A6D80DD8-A6EF-48C5-BEAB-CD18D09DD35D*
G04*
G04*
G04 #@! TF.FilePolarity,Negative*
G04*
G01*
G75*
%ADD15C,0.07487*%
%ADD16R,0.07487X0.07487*%
%ADD17C,0.05518*%
%ADD18R,0.04528X0.04528*%
%ADD19C,0.04528*%
%ADD20C,0.14179*%
%ADD28R,0.03740X0.06693*%
%ADD29R,0.03937X0.06299*%
%ADD31R,0.08189X0.15000*%
%ADD36R,0.45000X0.35000*%
%ADD37R,0.06693X0.09843*%
%ADD41R,0.07093X0.04731*%
G04:AMPARAMS|DCode=42|XSize=29.59mil|YSize=68.96mil|CornerRadius=3.92mil|HoleSize=0mil|Usage=FLASHONLY|Rotation=90.000|XOffset=0mil|YOffset=0mil|HoleType=Round|Shape=RoundedRectangle|*
%AMROUNDEDRECTD42*
21,1,0.02959,0.06112,0,0,90.0*
21,1,0.02175,0.06896,0,0,90.0*
1,1,0.00784,0.03056,0.01088*
1,1,0.00784,0.03056,-0.01088*
1,1,0.00784,-0.03056,-0.01088*
1,1,0.00784,-0.03056,0.01088*
%
%ADD42ROUNDEDRECTD42*%
%ADD43R,0.22565X0.24376*%
%ADD44R,0.04219X0.11542*%
%ADD45R,0.08274X0.07093*%
%ADD46R,0.07093X0.04534*%
D15*
X232500Y385000D02*
D03*
X388000Y405000D02*
D03*
D16*
X232500D02*
D03*
X388000Y385000D02*
D03*
D17*
X310000Y432500D02*
D03*
X320000D02*
D03*
X300000D02*
D03*
D18*
Y395138D02*
D03*
D19*
X310000Y405138D02*
D03*
X320000Y395138D02*
D03*
D20*
X394000Y366000D02*
D03*
X226000Y475000D02*
D03*
Y366000D02*
D03*
X394000Y475000D02*
D03*
D28*
X233988Y414000D02*
D03*
X245012D02*
D03*
D29*
X311906Y387000D02*
D03*
X256095Y376000D02*
D03*
X300095Y387000D02*
D03*
X267905Y376000D02*
D03*
D31*
X340000Y387500D02*
D03*
X360000D02*
D03*
D36*
X350000Y432500D02*
D03*
D37*
X388000Y444374D02*
D03*
Y428626D02*
D03*
D41*
X223500Y405264D02*
D03*
Y415500D02*
D03*
D42*
X290122Y399500D02*
D03*
X267878D02*
D03*
X290122Y389500D02*
D03*
X267878Y384500D02*
D03*
Y389500D02*
D03*
X290122Y384500D02*
D03*
Y394500D02*
D03*
X267878D02*
D03*
D43*
X236000Y453882D02*
D03*
D44*
X226984Y427701D02*
D03*
X245016D02*
D03*
D45*
X258189Y438500D02*
D03*
X281811D02*
D03*
D46*
X258000Y399520D02*
D03*
Y389480D02*
D03*
M02*
