G04*
G04 #@! TF.GenerationSoftware,Altium Limited,Altium Designer,25.1.2 (22)*
G04*
G04 Layer_Color=16711935*
%FSLAX25Y25*%
%MOIN*%
G70*
G04*
G04 #@! TF.SameCoordinates,A6D80DD8-A6EF-48C5-BEAB-CD18D09DD35D*
G04*
G04*
G04 #@! TF.FilePolarity,Positive*
G04*
G01*
G75*
%ADD11C,0.00787*%
%ADD52C,0.00394*%
%ADD53C,0.00197*%
D11*
X372894Y379606D02*
Y450394D01*
X327106Y379606D02*
X372894D01*
X327106D02*
Y450394D01*
X372894D01*
X231626Y417937D02*
X247374D01*
X231626Y410063D02*
Y417937D01*
Y410063D02*
X247374D01*
Y417937D01*
X297732Y383063D02*
Y390937D01*
X314268D01*
Y383063D02*
Y390937D01*
X297732Y383063D02*
X314268D01*
X270268Y372063D02*
Y379937D01*
X253732Y372063D02*
X270268D01*
X253732D02*
Y379937D01*
X270268D01*
X394142Y423311D02*
Y449689D01*
X381858D02*
X394142D01*
X381858Y423311D02*
Y449689D01*
Y423311D02*
X394142D01*
D52*
X221532Y410382D02*
X225468D01*
X223500Y408413D02*
Y412350D01*
X279000Y390032D02*
Y393969D01*
X277031Y392000D02*
X280968D01*
X256031Y394500D02*
X259968D01*
X258000Y392531D02*
Y396468D01*
D53*
X227437Y402705D02*
Y418059D01*
X219563Y402705D02*
Y418059D01*
Y402705D02*
X227437D01*
X219563Y418059D02*
X227437D01*
X262661Y380189D02*
X295339D01*
X262661Y403811D02*
X295339D01*
X262661Y380189D02*
Y403811D01*
X295339Y380189D02*
Y403811D01*
X253465Y422752D02*
Y454248D01*
Y422752D02*
X286535D01*
Y454248D01*
X253465D02*
X286535D01*
X254063Y387020D02*
Y401980D01*
X261937Y387020D02*
Y401980D01*
X254063D02*
X261937D01*
X254063Y387020D02*
X261937D01*
M02*
