G04*
G04 #@! TF.GenerationSoftware,Altium Limited,Altium Designer,25.1.2 (22)*
G04*
G04 Layer_Color=32896*
%FSLAX25Y25*%
%MOIN*%
G70*
G04*
G04 #@! TF.SameCoordinates,A6D80DD8-A6EF-48C5-BEAB-CD18D09DD35D*
G04*
G04*
G04 #@! TF.FilePolarity,Positive*
G04*
G01*
G75*
%ADD10C,0.01000*%
%ADD11C,0.00787*%
%ADD14C,0.00800*%
%ADD47C,0.01181*%
%ADD48C,0.02362*%
%ADD49C,0.00984*%
%ADD50C,0.00500*%
D10*
X380990Y467500D02*
Y472498D01*
X377657Y467500D01*
Y472498D01*
X375991Y467500D02*
X374325D01*
X375158D01*
Y470832D01*
X375991D01*
X368494D02*
X370993D01*
X371826Y469999D01*
Y468333D01*
X370993Y467500D01*
X368494D01*
X366827Y472498D02*
Y467500D01*
Y469999D01*
X365994Y470832D01*
X364328D01*
X363495Y469999D01*
Y467500D01*
X360996D02*
X359330D01*
X358497Y468333D01*
Y469999D01*
X359330Y470832D01*
X360996D01*
X361829Y469999D01*
Y468333D01*
X360996Y467500D01*
X356831D02*
X355165D01*
X355998D01*
Y472498D01*
X356831D01*
X351832Y470832D02*
X350166D01*
X349333Y469999D01*
Y467500D01*
X351832D01*
X352665Y468333D01*
X351832Y469166D01*
X349333D01*
X347667Y467500D02*
X345168D01*
X344335Y468333D01*
X345168Y469166D01*
X346834D01*
X347667Y469999D01*
X346834Y470832D01*
X344335D01*
X337670Y467500D02*
Y472498D01*
X334338Y467500D01*
Y472498D01*
X332672Y467500D02*
X331006D01*
X331839D01*
Y470832D01*
X332672D01*
X328506Y467500D02*
X326840D01*
X327673D01*
Y472498D01*
X328506D01*
X321842Y467500D02*
X323508D01*
X324341Y468333D01*
Y469999D01*
X323508Y470832D01*
X321842D01*
X321009Y469999D01*
Y469166D01*
X324341D01*
X319343Y467500D02*
X316844D01*
X316010Y468333D01*
X316844Y469166D01*
X318510D01*
X319343Y469999D01*
X318510Y470832D01*
X316010D01*
D11*
X226453Y409004D02*
Y411760D01*
X220547Y409004D02*
Y411760D01*
X371004Y401772D02*
Y413524D01*
X328996Y401772D02*
X371004D01*
X328996D02*
Y413524D01*
X272701Y382157D02*
X285299D01*
X272701Y401842D02*
X285299D01*
X272701Y382157D02*
Y401842D01*
X285299Y382157D02*
Y401842D01*
X255039Y453461D02*
X284961D01*
X255039Y423539D02*
X284961D01*
X255039Y443028D02*
Y453461D01*
X284961Y443028D02*
Y453461D01*
Y423539D02*
Y433972D01*
X255039Y423539D02*
Y433972D01*
X237335Y417543D02*
X241665D01*
X237335Y410457D02*
X241665D01*
X303539Y390543D02*
X308461D01*
X303539Y383457D02*
X308461D01*
X255047Y393122D02*
Y395878D01*
X260953Y393122D02*
Y395878D01*
X259539Y372457D02*
X264461D01*
X259539Y379543D02*
X264461D01*
X393748Y427445D02*
Y445555D01*
X382252D02*
X383177D01*
X392823D02*
X393748D01*
X382252Y427445D02*
Y445555D01*
Y427445D02*
X383177D01*
X392823D02*
X393748D01*
D14*
X381369Y478965D02*
Y475466D01*
X379620D01*
X379036Y476049D01*
Y478382D01*
X379620Y478965D01*
X381369D01*
X376121Y475466D02*
X377287D01*
X377870Y476049D01*
Y477216D01*
X377287Y477799D01*
X376121D01*
X375538Y477216D01*
Y476633D01*
X377870D01*
X374371Y475466D02*
X372622D01*
X372039Y476049D01*
X372622Y476633D01*
X373788D01*
X374371Y477216D01*
X373788Y477799D01*
X372039D01*
X370872Y475466D02*
X369706D01*
X370289D01*
Y477799D01*
X370872D01*
X366790Y474300D02*
X366207D01*
X365624Y474883D01*
Y477799D01*
X367374D01*
X367957Y477216D01*
Y476049D01*
X367374Y475466D01*
X365624D01*
X364458D02*
Y477799D01*
X362708D01*
X362125Y477216D01*
Y475466D01*
X359210D02*
X360376D01*
X360959Y476049D01*
Y477216D01*
X360376Y477799D01*
X359210D01*
X358626Y477216D01*
Y476633D01*
X360959D01*
X355128Y478965D02*
Y475466D01*
X356877D01*
X357460Y476049D01*
Y477216D01*
X356877Y477799D01*
X355128D01*
X350462Y478965D02*
Y475466D01*
X348713D01*
X348130Y476049D01*
Y476633D01*
Y477216D01*
X348713Y477799D01*
X350462D01*
X346964D02*
Y476049D01*
X346380Y475466D01*
X344631D01*
Y474883D01*
X345214Y474300D01*
X345797D01*
X344631Y475466D02*
Y477799D01*
X381070Y464465D02*
Y460966D01*
Y462716D01*
X380486Y463299D01*
X379320D01*
X378737Y462716D01*
Y460966D01*
X376988Y463882D02*
Y463299D01*
X377571D01*
X376404D01*
X376988D01*
Y461549D01*
X376404Y460966D01*
X374072Y463882D02*
Y463299D01*
X374655D01*
X373489D01*
X374072D01*
Y461549D01*
X373489Y460966D01*
X371739Y459800D02*
Y463299D01*
X369990D01*
X369407Y462716D01*
Y461549D01*
X369990Y460966D01*
X371739D01*
X368240D02*
X366491D01*
X365908Y461549D01*
X366491Y462133D01*
X367657D01*
X368240Y462716D01*
X367657Y463299D01*
X365908D01*
X364741D02*
X364158D01*
Y462716D01*
X364741D01*
Y463299D01*
Y461549D02*
X364158D01*
Y460966D01*
X364741D01*
Y461549D01*
X361826Y460966D02*
X359493Y463299D01*
X358327Y460966D02*
X355994Y463299D01*
X354828Y460966D02*
Y463299D01*
X353079D01*
X352496Y462716D01*
Y460966D01*
X351329D02*
X350163D01*
X350746D01*
Y463299D01*
X351329D01*
X346081D02*
X347830D01*
X348413Y462716D01*
Y461549D01*
X347830Y460966D01*
X346081D01*
X344915Y464465D02*
Y460966D01*
Y462716D01*
X344331Y463299D01*
X343165D01*
X342582Y462716D01*
Y460966D01*
X340833D02*
X339666D01*
X339083Y461549D01*
Y462716D01*
X339666Y463299D01*
X340833D01*
X341416Y462716D01*
Y461549D01*
X340833Y460966D01*
X337917D02*
X336751D01*
X337334D01*
Y464465D01*
X337917D01*
X334418Y463299D02*
X333252D01*
X332669Y462716D01*
Y460966D01*
X334418D01*
X335001Y461549D01*
X334418Y462133D01*
X332669D01*
X331502Y460966D02*
X329753D01*
X329170Y461549D01*
X329753Y462133D01*
X330919D01*
X331502Y462716D01*
X330919Y463299D01*
X329170D01*
X328003Y460966D02*
Y463299D01*
X326254D01*
X325671Y462716D01*
Y460966D01*
X324504D02*
X323338D01*
X323921D01*
Y463299D01*
X324504D01*
X321589Y460966D02*
X320423D01*
X321006D01*
Y464465D01*
X321589D01*
X316924Y460966D02*
X318090D01*
X318673Y461549D01*
Y462716D01*
X318090Y463299D01*
X316924D01*
X316340Y462716D01*
Y462133D01*
X318673D01*
X315174Y460966D02*
X313425D01*
X312842Y461549D01*
X313425Y462133D01*
X314591D01*
X315174Y462716D01*
X314591Y463299D01*
X312842D01*
X311675Y460966D02*
Y461549D01*
X311092D01*
Y460966D01*
X311675D01*
X306427Y463299D02*
X308176D01*
X308760Y462716D01*
Y461549D01*
X308176Y460966D01*
X306427D01*
X304678D02*
X303511D01*
X302928Y461549D01*
Y462716D01*
X303511Y463299D01*
X304678D01*
X305261Y462716D01*
Y461549D01*
X304678Y460966D01*
X301762D02*
Y463299D01*
X301179D01*
X300596Y462716D01*
Y460966D01*
Y462716D01*
X300012Y463299D01*
X299429Y462716D01*
Y460966D01*
X298263D02*
X295930Y463299D01*
X246916Y470749D02*
Y467834D01*
X246333Y467251D01*
X245166D01*
X244583Y467834D01*
Y470749D01*
X241084Y467251D02*
X243417D01*
X241084Y469583D01*
Y470166D01*
X241667Y470749D01*
X242834D01*
X243417Y470166D01*
X369500Y451834D02*
Y454166D01*
X370083Y454749D01*
X371249D01*
X371833Y454166D01*
Y451834D01*
X371249Y451251D01*
X370083D01*
X370666Y452417D02*
X369500Y451251D01*
X370083D02*
X369500Y451834D01*
X368334Y451251D02*
X367167D01*
X367751D01*
Y454749D01*
X368334Y454166D01*
X284833Y458749D02*
Y455251D01*
X282500D01*
X281334D02*
X280167D01*
X280751D01*
Y458749D01*
X281334Y458166D01*
X224083Y401166D02*
X224666Y401749D01*
X225833D01*
X226416Y401166D01*
Y398834D01*
X225833Y398251D01*
X224666D01*
X224083Y398834D01*
X221167Y398251D02*
Y401749D01*
X222917Y400000D01*
X220584D01*
X251571Y415166D02*
X252154Y415749D01*
X253321D01*
X253904Y415166D01*
Y412834D01*
X253321Y412251D01*
X252154D01*
X251571Y412834D01*
X250405Y415166D02*
X249822Y415749D01*
X248656D01*
X248073Y415166D01*
Y414583D01*
X248656Y414000D01*
X249239D01*
X248656D01*
X248073Y413417D01*
Y412834D01*
X248656Y412251D01*
X249822D01*
X250405Y412834D01*
X390333Y454249D02*
Y450751D01*
X388583D01*
X388000Y451334D01*
Y453666D01*
X388583Y454249D01*
X390333D01*
X386834Y450751D02*
X385667D01*
X386251D01*
Y454249D01*
X386834Y453666D01*
X260333Y402751D02*
Y406249D01*
X258583D01*
X258000Y405666D01*
Y404500D01*
X258583Y403917D01*
X260333D01*
X259166D02*
X258000Y402751D01*
X256834D02*
X255667D01*
X256251D01*
Y406249D01*
X256834Y405666D01*
X273500Y377166D02*
X274083Y377749D01*
X275249D01*
X275833Y377166D01*
Y374834D01*
X275249Y374251D01*
X274083D01*
X273500Y374834D01*
X272334Y374251D02*
X271167D01*
X271751D01*
Y377749D01*
X272334Y377166D01*
X306583Y381166D02*
X307166Y381749D01*
X308333D01*
X308916Y381166D01*
Y378834D01*
X308333Y378251D01*
X307166D01*
X306583Y378834D01*
X303084Y378251D02*
X305417D01*
X303084Y380583D01*
Y381166D01*
X303667Y381749D01*
X304834D01*
X305417Y381166D01*
X281333Y406749D02*
Y403834D01*
X280749Y403251D01*
X279583D01*
X279000Y403834D01*
Y406749D01*
X277834Y403251D02*
X276667D01*
X277251D01*
Y406749D01*
X277834Y406166D01*
D47*
X245449Y418803D02*
G03*
X245449Y418803I-394J0D01*
G01*
D48*
X282543Y397905D02*
G03*
X282543Y397905I-1181J0D01*
G01*
D49*
X290614Y402945D02*
G03*
X290614Y402945I-492J0D01*
G01*
X258681Y455429D02*
G03*
X258681Y455429I-492J0D01*
G01*
X388492Y421539D02*
G03*
X388492Y421539I-492J0D01*
G01*
D50*
X249268Y435622D02*
Y460114D01*
X222732Y435622D02*
Y460114D01*
Y435622D02*
X249268D01*
M02*
