G04*
G04 #@! TF.GenerationSoftware,Altium Limited,Altium Designer,25.1.2 (22)*
G04*
G04 Layer_Color=32768*
%FSLAX25Y25*%
%MOIN*%
G70*
G04*
G04 #@! TF.SameCoordinates,A6D80DD8-A6EF-48C5-BEAB-CD18D09DD35D*
G04*
G04*
G04 #@! TF.FilePolarity,Positive*
G04*
G01*
G75*
%ADD11C,0.00787*%
%ADD52C,0.00394*%
D11*
X371004Y401772D02*
Y439764D01*
X328996Y401772D02*
X371004D01*
X328996D02*
Y439764D01*
X371004D01*
X232807Y417543D02*
X246193D01*
X232807Y410457D02*
Y417543D01*
Y410457D02*
X246193D01*
Y417543D01*
X299307Y383457D02*
Y390543D01*
X312693D01*
Y383457D02*
Y390543D01*
X299307Y383457D02*
X312693D01*
X268693Y372457D02*
Y379543D01*
X255307Y372457D02*
X268693D01*
X255307D02*
Y379543D01*
X268693D01*
X393748Y427445D02*
Y445555D01*
X382252D02*
X393748D01*
X382252Y427445D02*
Y445555D01*
Y427445D02*
X393748D01*
D52*
X285299Y398299D02*
G03*
X285299Y398299I-1969J0D01*
G01*
X261141Y448933D02*
G03*
X261141Y448933I-1575J0D01*
G01*
X227043Y403689D02*
Y417075D01*
X219957Y403689D02*
Y417075D01*
Y403689D02*
X227043D01*
X219957Y417075D02*
X227043D01*
X271126Y382157D02*
X286874D01*
X271126Y401842D02*
X286874D01*
X271126Y382157D02*
Y401842D01*
X286874Y382157D02*
Y401842D01*
X255630Y452870D02*
X284370D01*
Y424130D02*
Y452870D01*
X255630Y424130D02*
X284370D01*
X255630D02*
Y452870D01*
X254457Y388004D02*
Y400996D01*
X261543Y388004D02*
Y400996D01*
X254457D02*
X261543D01*
X254457Y388004D02*
X261543D01*
M02*
