G04*
G04 #@! TF.GenerationSoftware,Altium Limited,Altium Designer,25.1.2 (22)*
G04*
G04 Layer_Physical_Order=2*
G04 Layer_Color=16711680*
%FSLAX25Y25*%
%MOIN*%
G70*
G04*
G04 #@! TF.SameCoordinates,A6D80DD8-A6EF-48C5-BEAB-CD18D09DD35D*
G04*
G04*
G04 #@! TF.FilePolarity,Positive*
G04*
G01*
G75*
%ADD10C,0.01000*%
%ADD18R,0.04528X0.04528*%
%ADD19C,0.04528*%
%ADD21C,0.02500*%
%ADD22C,0.07087*%
%ADD23R,0.07087X0.07087*%
%ADD24C,0.05118*%
%ADD25C,0.13780*%
%ADD26C,0.02400*%
%ADD27R,0.06693X0.04331*%
%ADD28R,0.03740X0.06693*%
%ADD29R,0.03937X0.06299*%
G04:AMPARAMS|DCode=30|XSize=25.59mil|YSize=64.96mil|CornerRadius=1.92mil|HoleSize=0mil|Usage=FLASHONLY|Rotation=90.000|XOffset=0mil|YOffset=0mil|HoleType=Round|Shape=RoundedRectangle|*
%AMROUNDEDRECTD30*
21,1,0.02559,0.06112,0,0,90.0*
21,1,0.02175,0.06496,0,0,90.0*
1,1,0.00384,0.03056,0.01088*
1,1,0.00384,0.03056,-0.01088*
1,1,0.00384,-0.03056,-0.01088*
1,1,0.00384,-0.03056,0.01088*
%
%ADD30ROUNDEDRECTD30*%
%ADD31R,0.08189X0.15000*%
%ADD32R,0.22165X0.23976*%
%ADD33R,0.03819X0.11142*%
%ADD34R,0.07874X0.06693*%
%ADD35R,0.06693X0.04134*%
%ADD36R,0.45000X0.35000*%
%ADD37R,0.06693X0.09843*%
%ADD38C,0.02000*%
%ADD39C,0.06000*%
%ADD40C,0.01500*%
G36*
X396683Y483844D02*
X398357Y483150D01*
X399863Y482144D01*
X401144Y480863D01*
X402150Y479356D01*
X402844Y477683D01*
X403197Y475906D01*
Y475000D01*
Y366000D01*
Y365094D01*
X402844Y363317D01*
X402150Y361644D01*
X401144Y360137D01*
X399863Y358856D01*
X398357Y357850D01*
X396683Y357156D01*
X394906Y356803D01*
X225094D01*
X223317Y357156D01*
X221643Y357850D01*
X220137Y358856D01*
X218856Y360137D01*
X217849Y361644D01*
X217156Y363317D01*
X216803Y365094D01*
Y366000D01*
Y475000D01*
Y475906D01*
X217156Y477683D01*
X217849Y479356D01*
X218856Y480863D01*
X220137Y482144D01*
X221643Y483150D01*
X223317Y483844D01*
X225094Y484197D01*
X394906D01*
X396683Y483844D01*
D02*
G37*
%LPC*%
G36*
X394728Y482390D02*
X393272D01*
X391845Y482106D01*
X390500Y481549D01*
X389289Y480740D01*
X388260Y479711D01*
X387451Y478500D01*
X386894Y477155D01*
X386610Y475728D01*
Y474272D01*
X386894Y472845D01*
X387451Y471500D01*
X388260Y470289D01*
X389289Y469260D01*
X390500Y468451D01*
X391845Y467894D01*
X393272Y467610D01*
X394728D01*
X396156Y467894D01*
X397500Y468451D01*
X398711Y469260D01*
X399740Y470289D01*
X400549Y471500D01*
X401106Y472845D01*
X401390Y474272D01*
Y475728D01*
X401106Y477155D01*
X400549Y478500D01*
X399740Y479711D01*
X398711Y480740D01*
X397500Y481549D01*
X396156Y482106D01*
X394728Y482390D01*
D02*
G37*
G36*
X226728D02*
X225272D01*
X223845Y482106D01*
X222500Y481549D01*
X221289Y480740D01*
X220260Y479711D01*
X219451Y478500D01*
X218894Y477155D01*
X218610Y475728D01*
Y474272D01*
X218894Y472845D01*
X219451Y471500D01*
X220260Y470289D01*
X221289Y469260D01*
X222500Y468451D01*
X223845Y467894D01*
X225272Y467610D01*
X226728D01*
X228155Y467894D01*
X229500Y468451D01*
X230711Y469260D01*
X231740Y470289D01*
X232549Y471500D01*
X233106Y472845D01*
X233390Y474272D01*
Y475728D01*
X233106Y477155D01*
X232549Y478500D01*
X231740Y479711D01*
X230711Y480740D01*
X229500Y481549D01*
X228155Y482106D01*
X226728Y482390D01*
D02*
G37*
G36*
X247583Y466370D02*
X236250D01*
Y454132D01*
X247583D01*
Y466370D01*
D02*
G37*
G36*
X235750D02*
X224417D01*
Y454132D01*
X235750D01*
Y466370D01*
D02*
G37*
G36*
X247583Y453632D02*
X236250D01*
Y441394D01*
X247583D01*
Y453632D01*
D02*
G37*
G36*
X235750D02*
X224417D01*
Y441394D01*
X235750D01*
Y453632D01*
D02*
G37*
G36*
X328000Y453030D02*
X293402D01*
X292488Y452910D01*
X291636Y452557D01*
X290905Y451996D01*
X281256Y442346D01*
X277374D01*
Y434654D01*
X286248D01*
Y437354D01*
X294864Y445970D01*
X326538D01*
X327000Y445507D01*
Y414500D01*
X373000D01*
Y440844D01*
X384154D01*
Y438953D01*
X391846D01*
Y449795D01*
X384154D01*
Y447904D01*
X373000D01*
Y450500D01*
X331993D01*
X330496Y451996D01*
X329765Y452557D01*
X328914Y452910D01*
X328000Y453030D01*
D02*
G37*
G36*
X300403Y435559D02*
X299597D01*
X298819Y435351D01*
X298122Y434948D01*
X297552Y434378D01*
X297149Y433681D01*
X296941Y432903D01*
Y432097D01*
X297149Y431319D01*
X297552Y430622D01*
X298122Y430052D01*
X298819Y429649D01*
X299597Y429441D01*
X300403D01*
X301181Y429649D01*
X301878Y430052D01*
X302448Y430622D01*
X302851Y431319D01*
X303059Y432097D01*
Y432903D01*
X302851Y433681D01*
X302448Y434378D01*
X301878Y434948D01*
X301181Y435351D01*
X300403Y435559D01*
D02*
G37*
G36*
X297015Y444530D02*
X296101Y444410D01*
X295250Y444057D01*
X294518Y443496D01*
X294518Y443496D01*
X289504Y438482D01*
X288943Y437750D01*
X288590Y436899D01*
X288470Y435985D01*
Y426962D01*
X283538Y422030D01*
X263166D01*
X261719Y423477D01*
Y434654D01*
X262626D01*
Y442346D01*
X253752D01*
Y440530D01*
X250500D01*
X249586Y440410D01*
X248735Y440057D01*
X248004Y439496D01*
X248004Y439496D01*
X242519Y434012D01*
X241958Y433281D01*
X241606Y432429D01*
X241486Y431516D01*
Y427701D01*
Y414000D01*
X241606Y413086D01*
X241958Y412235D01*
X242519Y411504D01*
X242642Y411410D01*
Y410153D01*
X247382D01*
Y411404D01*
X247512Y411504D01*
X248073Y412235D01*
X248426Y413086D01*
X248546Y414000D01*
Y427701D01*
Y430054D01*
X251962Y433470D01*
X254659D01*
Y422015D01*
X254779Y421101D01*
X255132Y420250D01*
X255693Y419519D01*
X259208Y416004D01*
X259939Y415443D01*
X260790Y415090D01*
X261704Y414970D01*
X285000D01*
X285914Y415090D01*
X286765Y415443D01*
X287496Y416004D01*
X294496Y423004D01*
X294496Y423004D01*
X295057Y423735D01*
X295410Y424586D01*
X295530Y425500D01*
Y434523D01*
X298477Y437470D01*
X313538D01*
X316470Y434538D01*
Y432500D01*
X316590Y431586D01*
X316943Y430735D01*
X317504Y430004D01*
X318235Y429443D01*
X319086Y429090D01*
X320000Y428970D01*
X320914Y429090D01*
X321765Y429443D01*
X322496Y430004D01*
X323057Y430735D01*
X323410Y431586D01*
X323530Y432500D01*
Y436000D01*
X323410Y436914D01*
X323057Y437765D01*
X322496Y438496D01*
X317496Y443496D01*
X316765Y444057D01*
X315914Y444410D01*
X315000Y444530D01*
X297015D01*
X297015Y444530D01*
D02*
G37*
G36*
X236358Y417846D02*
X234238D01*
Y414250D01*
X236358D01*
Y417846D01*
D02*
G37*
G36*
X233738D02*
X231618D01*
Y414250D01*
X233738D01*
Y417846D01*
D02*
G37*
G36*
X229394Y433772D02*
X224575D01*
Y421630D01*
X225216D01*
Y419739D01*
X224335Y418858D01*
X223948Y418279D01*
X223925Y418165D01*
X219654D01*
Y412835D01*
X227346D01*
Y416243D01*
X227381Y416415D01*
Y416857D01*
X228262Y417738D01*
X228262Y417738D01*
X228648Y418317D01*
X228784Y419000D01*
X228784Y419000D01*
Y421630D01*
X229394D01*
Y433772D01*
D02*
G37*
G36*
X236358Y413750D02*
X234238D01*
Y410153D01*
X236358D01*
Y413750D01*
D02*
G37*
G36*
X233738D02*
X231618D01*
Y410153D01*
X233738D01*
Y413750D01*
D02*
G37*
G36*
X310000Y436030D02*
X309086Y435910D01*
X308235Y435557D01*
X307504Y434996D01*
X306943Y434265D01*
X306590Y433414D01*
X306470Y432500D01*
Y421462D01*
X298538Y413530D01*
X255500D01*
X254586Y413410D01*
X253735Y413057D01*
X253004Y412496D01*
X249038Y408530D01*
X236543D01*
Y409043D01*
X228457D01*
Y400957D01*
X236543D01*
Y401470D01*
X250500D01*
X251414Y401590D01*
X252265Y401943D01*
X252996Y402504D01*
X256962Y406470D01*
X300000D01*
X300914Y406590D01*
X301765Y406943D01*
X302496Y407504D01*
X312496Y417504D01*
X313057Y418235D01*
X313410Y419086D01*
X313530Y420000D01*
X313530Y420000D01*
Y432500D01*
X313410Y433414D01*
X313057Y434265D01*
X312496Y434996D01*
X311765Y435557D01*
X310914Y435910D01*
X310000Y436030D01*
D02*
G37*
G36*
X227346Y407929D02*
X223750D01*
Y405514D01*
X227346D01*
Y407929D01*
D02*
G37*
G36*
X223250D02*
X219654D01*
Y405514D01*
X223250D01*
Y407929D01*
D02*
G37*
G36*
X227346Y405014D02*
X223750D01*
Y402598D01*
X227346D01*
Y405014D01*
D02*
G37*
G36*
X223250D02*
X219654D01*
Y402598D01*
X223250D01*
Y405014D01*
D02*
G37*
G36*
X310364Y407902D02*
X309636D01*
X308933Y407713D01*
X308303Y407349D01*
X307788Y406835D01*
X307425Y406205D01*
X307236Y405502D01*
Y404774D01*
X306335Y404275D01*
X285500D01*
X285012Y404178D01*
X284599Y403901D01*
X276472Y395775D01*
X271602D01*
X271586Y395858D01*
X271433Y396087D01*
X271204Y396239D01*
X270934Y396293D01*
X264822D01*
X264552Y396239D01*
X264323Y396087D01*
X264170Y395858D01*
X264154Y395775D01*
X261770D01*
X261282Y395677D01*
X260869Y395401D01*
X257515Y392047D01*
X254153D01*
Y386913D01*
X261846D01*
Y392047D01*
X261846D01*
X261633Y392561D01*
X262298Y393226D01*
X264154D01*
X264170Y393142D01*
X264323Y392914D01*
X264552Y392761D01*
X264822Y392707D01*
X270934D01*
X271204Y392761D01*
X271433Y392914D01*
X271586Y393142D01*
X271602Y393226D01*
X277000D01*
X277011Y393228D01*
X277504Y392306D01*
X275972Y390774D01*
X271602D01*
X271586Y390858D01*
X271433Y391087D01*
X271204Y391239D01*
X270934Y391293D01*
X264822D01*
X264552Y391239D01*
X264323Y391087D01*
X264170Y390858D01*
X264116Y390588D01*
Y388412D01*
X264170Y388142D01*
X264323Y387913D01*
X264552Y387761D01*
X264822Y387707D01*
X270934D01*
X271204Y387761D01*
X271433Y387913D01*
X271586Y388142D01*
X271602Y388226D01*
X276500D01*
X276988Y388322D01*
X277401Y388599D01*
X282028Y393226D01*
X286398D01*
X286414Y393142D01*
X286567Y392914D01*
X286796Y392761D01*
X287066Y392707D01*
X293178D01*
X293448Y392761D01*
X293677Y392914D01*
X293830Y393142D01*
X293847Y393226D01*
X297236D01*
Y392374D01*
X298820D01*
Y390650D01*
X297626D01*
Y383350D01*
X302563D01*
Y390650D01*
X301369D01*
Y392374D01*
X302764D01*
Y397902D01*
X297236D01*
Y395775D01*
X293847D01*
X293830Y395858D01*
X293677Y396087D01*
X293448Y396239D01*
X293178Y396293D01*
X287066D01*
X286796Y396239D01*
X286567Y396087D01*
X286414Y395858D01*
X286398Y395775D01*
X281500D01*
X281489Y395772D01*
X280996Y396694D01*
X285550Y401247D01*
X285760Y401152D01*
X286374Y400658D01*
X286361Y400588D01*
Y399750D01*
X290122D01*
X293884D01*
Y400588D01*
X293856Y400726D01*
X293987Y401104D01*
X294384Y401725D01*
X307608D01*
X308095Y401823D01*
X308509Y402099D01*
X308964Y402554D01*
X309636Y402374D01*
X310364D01*
X311067Y402562D01*
X311697Y402926D01*
X312212Y403441D01*
X312575Y404071D01*
X312764Y404774D01*
Y405502D01*
X312575Y406205D01*
X312212Y406835D01*
X311697Y407349D01*
X311067Y407713D01*
X310364Y407902D01*
D02*
G37*
G36*
X391846Y434047D02*
X384154D01*
Y423205D01*
X384470D01*
Y406972D01*
X384232Y406561D01*
X383957Y405532D01*
Y404468D01*
X384232Y403439D01*
X384765Y402517D01*
X385517Y401765D01*
X386439Y401232D01*
X387468Y400957D01*
X388532D01*
X389561Y401232D01*
X390483Y401765D01*
X391235Y402517D01*
X391768Y403439D01*
X392043Y404468D01*
Y405532D01*
X391768Y406561D01*
X391530Y406972D01*
Y423205D01*
X391846D01*
Y434047D01*
D02*
G37*
G36*
X293884Y399250D02*
X290372D01*
Y397707D01*
X293178D01*
X293448Y397761D01*
X293677Y397914D01*
X293830Y398142D01*
X293884Y398412D01*
Y399250D01*
D02*
G37*
G36*
X289872D02*
X286361D01*
Y398412D01*
X286414Y398142D01*
X286567Y397914D01*
X286796Y397761D01*
X287066Y397707D01*
X289872D01*
Y399250D01*
D02*
G37*
G36*
X261846Y402087D02*
X254153D01*
Y396953D01*
X261846D01*
Y397716D01*
X264778D01*
X264822Y397707D01*
X270934D01*
X271204Y397761D01*
X271433Y397914D01*
X271586Y398142D01*
X271640Y398412D01*
Y400588D01*
X271586Y400858D01*
X271433Y401087D01*
X271204Y401239D01*
X270934Y401293D01*
X264822D01*
X264778Y401284D01*
X261846D01*
Y402087D01*
D02*
G37*
G36*
X320364Y397902D02*
X319636D01*
X318933Y397713D01*
X318303Y397349D01*
X317788Y396835D01*
X317425Y396205D01*
X317236Y395502D01*
Y394774D01*
X317425Y394071D01*
X317788Y393441D01*
X318303Y392926D01*
X318933Y392562D01*
X319636Y392374D01*
X320364D01*
X321067Y392562D01*
X321697Y392926D01*
X322212Y393441D01*
X322575Y394071D01*
X322764Y394774D01*
Y395502D01*
X322575Y396205D01*
X322212Y396835D01*
X321697Y397349D01*
X321067Y397713D01*
X320364Y397902D01*
D02*
G37*
G36*
X344595Y395500D02*
X340250D01*
Y387750D01*
X344595D01*
Y395500D01*
D02*
G37*
G36*
X339750D02*
X335405D01*
Y387750D01*
X339750D01*
Y395500D01*
D02*
G37*
G36*
X364595D02*
X355405D01*
Y379500D01*
X357423D01*
X357837Y378500D01*
X356867Y377529D01*
X285633D01*
X283529Y379633D01*
Y385367D01*
X285678Y387515D01*
X286567Y387913D01*
X286796Y387761D01*
X287066Y387707D01*
X293178D01*
X293448Y387761D01*
X293677Y387913D01*
X293830Y388142D01*
X293884Y388412D01*
Y390588D01*
X293830Y390858D01*
X293677Y391087D01*
X293448Y391239D01*
X293178Y391293D01*
X287066D01*
X286796Y391239D01*
X286567Y391087D01*
X286529Y391029D01*
X285500D01*
X284915Y390913D01*
X284419Y390581D01*
X280919Y387081D01*
X280587Y386585D01*
X280471Y386000D01*
Y379000D01*
X280587Y378415D01*
X280919Y377919D01*
X283919Y374919D01*
X284415Y374587D01*
X285000Y374471D01*
X357500D01*
X358085Y374587D01*
X358581Y374919D01*
X361081Y377419D01*
X361413Y377915D01*
X361529Y378500D01*
Y379500D01*
X364595D01*
Y395500D01*
D02*
G37*
G36*
X314374Y390650D02*
X312156D01*
Y387250D01*
X314374D01*
Y390650D01*
D02*
G37*
G36*
X311655D02*
X309437D01*
Y387250D01*
X311655D01*
Y390650D01*
D02*
G37*
G36*
X233032Y389043D02*
X232750D01*
Y385250D01*
X236543D01*
Y385532D01*
X236268Y386561D01*
X235735Y387483D01*
X234983Y388235D01*
X234061Y388768D01*
X233032Y389043D01*
D02*
G37*
G36*
X392043D02*
X388250D01*
Y385250D01*
X392043D01*
Y389043D01*
D02*
G37*
G36*
X387750D02*
X383957D01*
Y385250D01*
X387750D01*
Y389043D01*
D02*
G37*
G36*
X232250D02*
X231968D01*
X230939Y388768D01*
X230017Y388235D01*
X229265Y387483D01*
X228732Y386561D01*
X228457Y385532D01*
Y385250D01*
X232250D01*
Y389043D01*
D02*
G37*
G36*
X314374Y386750D02*
X312156D01*
Y383350D01*
X314374D01*
Y386750D01*
D02*
G37*
G36*
X311655D02*
X309437D01*
Y383350D01*
X311655D01*
Y386750D01*
D02*
G37*
G36*
X293178Y386293D02*
X287066D01*
X286796Y386239D01*
X286567Y386087D01*
X286414Y385858D01*
X286361Y385588D01*
Y383412D01*
X286414Y383142D01*
X286567Y382913D01*
X286796Y382761D01*
X287066Y382707D01*
X293178D01*
X293448Y382761D01*
X293677Y382913D01*
X293830Y383142D01*
X293884Y383412D01*
Y385588D01*
X293830Y385858D01*
X293677Y386087D01*
X293448Y386239D01*
X293178Y386293D01*
D02*
G37*
G36*
X392043Y384750D02*
X388250D01*
Y380957D01*
X392043D01*
Y384750D01*
D02*
G37*
G36*
X387750D02*
X383957D01*
Y380957D01*
X387750D01*
Y384750D01*
D02*
G37*
G36*
X236543D02*
X232750D01*
Y380957D01*
X233032D01*
X234061Y381232D01*
X234983Y381765D01*
X235735Y382517D01*
X236268Y383439D01*
X236543Y384468D01*
Y384750D01*
D02*
G37*
G36*
X232250D02*
X228457D01*
Y384468D01*
X228732Y383439D01*
X229265Y382517D01*
X230017Y381765D01*
X230939Y381232D01*
X231968Y380957D01*
X232250D01*
Y384750D01*
D02*
G37*
G36*
X344595Y387250D02*
X340250D01*
Y379500D01*
X344595D01*
Y387250D01*
D02*
G37*
G36*
X339750D02*
X335405D01*
Y379500D01*
X339750D01*
Y387250D01*
D02*
G37*
G36*
X258563Y379650D02*
X256345D01*
Y376250D01*
X258563D01*
Y379650D01*
D02*
G37*
G36*
X255844D02*
X253626D01*
Y376250D01*
X255844D01*
Y379650D01*
D02*
G37*
G36*
X270934Y386293D02*
X264822D01*
X264552Y386239D01*
X264323Y386087D01*
X264170Y385858D01*
X264116Y385588D01*
Y383412D01*
X264170Y383142D01*
X264323Y382913D01*
X264552Y382761D01*
X264822Y382707D01*
X266603D01*
Y379650D01*
X265437D01*
Y372350D01*
X270374D01*
Y379650D01*
X269152D01*
Y382707D01*
X270934D01*
X271204Y382761D01*
X271433Y382913D01*
X271586Y383142D01*
X271640Y383412D01*
Y385588D01*
X271586Y385858D01*
X271433Y386087D01*
X271204Y386239D01*
X270934Y386293D01*
D02*
G37*
G36*
X258563Y375750D02*
X256345D01*
Y372350D01*
X258563D01*
Y375750D01*
D02*
G37*
G36*
X255844D02*
X253626D01*
Y372350D01*
X255844D01*
Y375750D01*
D02*
G37*
G36*
X394728Y373390D02*
X393272D01*
X391845Y373106D01*
X390500Y372549D01*
X389289Y371740D01*
X388260Y370711D01*
X387451Y369500D01*
X386894Y368156D01*
X386610Y366728D01*
Y365272D01*
X386894Y363844D01*
X387451Y362500D01*
X388260Y361289D01*
X389289Y360260D01*
X390500Y359451D01*
X391845Y358894D01*
X393272Y358610D01*
X394728D01*
X396156Y358894D01*
X397500Y359451D01*
X398711Y360260D01*
X399740Y361289D01*
X400549Y362500D01*
X401106Y363844D01*
X401390Y365272D01*
Y366728D01*
X401106Y368156D01*
X400549Y369500D01*
X399740Y370711D01*
X398711Y371740D01*
X397500Y372549D01*
X396156Y373106D01*
X394728Y373390D01*
D02*
G37*
G36*
X226728D02*
X225272D01*
X223845Y373106D01*
X222500Y372549D01*
X221289Y371740D01*
X220260Y370711D01*
X219451Y369500D01*
X218894Y368156D01*
X218610Y366728D01*
Y365272D01*
X218894Y363844D01*
X219451Y362500D01*
X220260Y361289D01*
X221289Y360260D01*
X222500Y359451D01*
X223845Y358894D01*
X225272Y358610D01*
X226728D01*
X228155Y358894D01*
X229500Y359451D01*
X230711Y360260D01*
X231740Y361289D01*
X232549Y362500D01*
X233106Y363844D01*
X233390Y365272D01*
Y366728D01*
X233106Y368156D01*
X232549Y369500D01*
X231740Y370711D01*
X230711Y371740D01*
X229500Y372549D01*
X228155Y373106D01*
X226728Y373390D01*
D02*
G37*
%LPD*%
D10*
X267905Y376000D02*
X267965Y376060D01*
D18*
X300000Y395138D02*
D03*
D19*
X310000Y405138D02*
D03*
X320000Y395138D02*
D03*
D21*
X257781Y399500D02*
X267878D01*
X227000Y419000D02*
Y427000D01*
X223500Y415500D02*
X224681D01*
X225596Y416415D01*
Y417596D01*
X227000Y419000D01*
D22*
X232500Y385000D02*
D03*
X388000Y405000D02*
D03*
D23*
X232500D02*
D03*
X388000Y385000D02*
D03*
D24*
X310000Y432500D02*
D03*
X320000D02*
D03*
X300000D02*
D03*
D25*
X394000Y366000D02*
D03*
X226000Y475000D02*
D03*
Y366000D02*
D03*
X394000Y475000D02*
D03*
D26*
X227000Y427000D02*
D03*
X258032Y399520D02*
D03*
D27*
X223500Y405264D02*
D03*
Y415500D02*
D03*
D28*
X233988Y414000D02*
D03*
X245012D02*
D03*
D29*
X311906Y387000D02*
D03*
X256095Y376000D02*
D03*
X300095Y387000D02*
D03*
X267905Y376000D02*
D03*
D30*
X290122Y399500D02*
D03*
X267878D02*
D03*
X290122Y389500D02*
D03*
X267878Y384500D02*
D03*
Y389500D02*
D03*
X290122Y384500D02*
D03*
Y394500D02*
D03*
X267878D02*
D03*
D31*
X340000Y387500D02*
D03*
X360000D02*
D03*
D32*
X236000Y453882D02*
D03*
D33*
X226984Y427701D02*
D03*
X245016D02*
D03*
D34*
X258189Y438500D02*
D03*
X281811D02*
D03*
D35*
X258000Y399520D02*
D03*
Y389480D02*
D03*
D36*
X350000Y432500D02*
D03*
D37*
X388000Y444374D02*
D03*
Y428626D02*
D03*
D38*
X285000Y376000D02*
X357500D01*
X360000Y378500D01*
X282000Y379000D02*
X285000Y376000D01*
X360000Y378500D02*
Y387500D01*
X282000Y379000D02*
Y386000D01*
X285500Y389500D01*
X290122D01*
D39*
X293402Y449500D02*
X328000D01*
X282748Y438846D02*
X293402Y449500D01*
X328000D02*
X345000Y432500D01*
X292000Y435985D02*
X297015Y441000D01*
X315000D01*
X320000Y436000D01*
Y432500D02*
Y436000D01*
X292000Y425500D02*
Y435985D01*
X255500Y410000D02*
X300000D01*
X232500Y405000D02*
X250500D01*
X255500Y410000D01*
X300000D02*
X310000Y420000D01*
X285000Y418500D02*
X292000Y425500D01*
X258189Y422015D02*
X261704Y418500D01*
X258189Y422015D02*
Y438500D01*
X261704Y418500D02*
X285000D01*
X310000Y420000D02*
Y432500D01*
X245016Y427701D02*
Y431516D01*
Y414000D02*
Y427701D01*
X250500Y437000D02*
X256098D01*
X245016Y431516D02*
X250500Y437000D01*
X256098D02*
X257252Y438154D01*
X257842D01*
X258189Y438500D01*
X281811D02*
X282157Y438846D01*
X282748D01*
X345000Y432500D02*
X350000D01*
X361874Y444374D01*
X388000D01*
Y405000D02*
Y428626D01*
D40*
X261770Y394500D02*
X277000D01*
X258000Y390730D02*
X261770Y394500D01*
X285500Y403000D02*
X307608D01*
X277000Y394500D02*
X285500Y403000D01*
X307608D02*
X309745Y405138D01*
X310000D01*
X267878Y389500D02*
X276500D01*
X281500Y394500D02*
X290122D01*
X276500Y389500D02*
X281500Y394500D01*
X300000Y395138D02*
X300095Y395043D01*
Y387000D02*
Y395043D01*
X299362Y394500D02*
X300000Y395138D01*
X290122Y394500D02*
X299362D01*
X267878Y378407D02*
Y384500D01*
M02*
