G04*
G04 #@! TF.GenerationSoftware,Altium Limited,Altium Designer,25.1.2 (22)*
G04*
G04 Layer_Color=128*
%FSLAX25Y25*%
%MOIN*%
G70*
G04*
G04 #@! TF.SameCoordinates,A6D80DD8-A6EF-48C5-BEAB-CD18D09DD35D*
G04*
G04*
G04 #@! TF.FilePolarity,Positive*
G04*
G01*
G75*
%ADD50C,0.00500*%
D50*
X229941Y385000D02*
X235059D01*
X232500Y382441D02*
Y387559D01*
X229941Y405000D02*
X235059D01*
X232500Y402441D02*
Y407559D01*
X308425Y432500D02*
X311575D01*
X310000Y430925D02*
Y434075D01*
X385441Y385000D02*
X390559D01*
X388000Y382441D02*
Y387559D01*
X318425Y432500D02*
X321575D01*
X320000Y430925D02*
Y434075D01*
X298425Y432500D02*
X301575D01*
X300000Y430925D02*
Y434075D01*
X298721Y395138D02*
X301279D01*
X300000Y393858D02*
Y396417D01*
X308720Y405138D02*
X311280D01*
X310000Y403858D02*
Y406417D01*
X318721Y395138D02*
X321280D01*
X320000Y393858D02*
Y396417D01*
X390063Y366000D02*
X397937D01*
X394000Y362063D02*
Y369937D01*
X222063Y475000D02*
X229937D01*
X226000Y471063D02*
Y478937D01*
X222063Y366000D02*
X229937D01*
X226000Y362063D02*
Y369937D01*
X390063Y475000D02*
X397937D01*
X394000Y471063D02*
Y478937D01*
X385441Y405000D02*
X390559D01*
X388000Y402441D02*
Y407559D01*
X226400Y427000D02*
X227600D01*
X227000Y426400D02*
Y427600D01*
X257432Y399520D02*
X258631D01*
X258032Y398920D02*
Y400120D01*
M02*
